<?xml version="1.0" encoding="utf-8"?>
<!-- Generator: Adobe Illustrator 23.0.3, SVG Export Plug-In . SVG Version: 6.00 Build 0)  -->
<svg version="1.1" id="Layer_1" xmlns="http://www.w3.org/2000/svg" xmlns:xlink="http://www.w3.org/1999/xlink" x="0px" y="0px"
	 viewBox="0 0 43.2 43.2" style="enable-background:new 0 0 43.2 43.2;" xml:space="preserve">
<style type="text/css">
	.st0{fill:#333333;}
	.st1{fill:#991F1F;}
</style>
<path class="st0" d="M35.1,39.6h-27c-2.5,0-4.5-2-4.5-4.5v-27c0-2.5,2-4.5,4.5-4.5h27c2.5,0,4.5,2,4.5,4.5v27
	C39.6,37.6,37.6,39.6,35.1,39.6z"/>
<path class="st1" d="M12.6,11c24.3,3,19.7,21.2,19.7,21.2H27c0,0-4.5-3-3-7.6c0,0-7.6,4.6-7.6,7.6h-5.3c0,0-3-7.6,4.6-10.6
	S12.6,11,12.6,11z"/>
<path class="st1" d="M24.2,32.2c0,0-2.3-1.5-1.5-3.8c0,0-3.8,2.3-3.8,3.8"/>
</svg>
