<?xml version="1.0" encoding="utf-8"?>
<!-- Generator: Adobe Illustrator 23.0.3, SVG Export Plug-In . SVG Version: 6.00 Build 0)  -->
<svg version="1.1" id="Layer_1" xmlns="http://www.w3.org/2000/svg" xmlns:xlink="http://www.w3.org/1999/xlink" x="0px" y="0px"
	 viewBox="0 0 43.2 43.2" style="enable-background:new 0 0 43.2 43.2;" xml:space="preserve">
<style type="text/css">
	.st0{fill:#333333;}
	.st1{fill:#991F1F;}
</style>
<path class="st0" d="M3.6,35.1v-27c0-2.5,2-4.5,4.5-4.5h27c2.5,0,4.5,2,4.5,4.5v27c0,2.5-2,4.5-4.5,4.5h-27
	C5.6,39.6,3.6,37.6,3.6,35.1z"/>
<path class="st1" d="M28.3,13.7c-18.2,2.2-14.8,15.9-14.8,15.9h4c0,0,3.4-2.3,2.3-5.7c0,0,5.7,3.4,5.7,5.7h4c0,0,2.3-5.7-3.4-8
	S28.3,13.6,28.3,13.7z"/>
</svg>
