<?xml version="1.0" encoding="utf-8"?>
<!-- Generator: Adobe Illustrator 23.0.3, SVG Export Plug-In . SVG Version: 6.00 Build 0)  -->
<svg version="1.1" id="Layer_1" xmlns="http://www.w3.org/2000/svg" xmlns:xlink="http://www.w3.org/1999/xlink" x="0px" y="0px"
	 viewBox="0 0 43.2 43.2" style="enable-background:new 0 0 43.2 43.2;" xml:space="preserve">
<style type="text/css">
	.st0{fill:#333333;}
	.st1{fill:#991F1F;}
</style>
<path class="st0" d="M3.6,35.1v-27c0-2.5,2-4.5,4.5-4.5h27c2.5,0,4.5,2,4.5,4.5v27c0,2.5-2,4.5-4.5,4.5h-27
	C5.6,39.6,3.6,37.6,3.6,35.1z"/>
<path class="st1" d="M17.1,16.3C29.3,17.8,27,26.9,27,26.9h-2.7c0,0-2.3-1.5-1.5-3.8c0,0-3.8,2.3-3.8,3.8h-2.7c0,0-1.5-3.8,2.3-5.3
	S17.1,16.3,17.1,16.3z"/>
<path class="st1" d="M22.8,23.1c-0.8,2.3,1.5,3.8,1.5,3.8H19C19,25.4,22.8,23.1,22.8,23.1z"/>
</svg>
