<?xml version="1.0" encoding="utf-8"?>
<!-- Generator: Adobe Illustrator 22.1.0, SVG Export Plug-In . SVG Version: 6.00 Build 0)  -->
<svg version="1.1" id="Layer_1" xmlns="http://www.w3.org/2000/svg" xmlns:xlink="http://www.w3.org/1999/xlink" x="0px" y="0px"
	 viewBox="0 0 41.6 39.1" style="enable-background:new 0 0 41.6 39.1;" xml:space="preserve">
<style type="text/css">
	.st0{fill:#676767;}
	.st1{fill:#4D4C4D;}
	.st2{fill:#CACAC9;}
	.st3{fill:#7F7F7F;}
</style>
<g>
	<g id="XMLID_12_">
		<g>
			<path class="st0" d="M38.8,11.3c0,0.9,0,1.8-0.2,2.7l-2.4,2.3l-2-0.5L38.8,11.3z"/>
			<path class="st1" d="M27.6,0.4c0.9-0.2,1.8-0.2,2.7-0.2l-5.1,5.1l2.3,8.7l6.7,1.8l-0.5,0.5L25,14.1l-2.3-8.7L27.6,0.4z"/>
			<path class="st1" d="M16.1,36.5c-1.9,1.8-4.4,2.6-6.8,2.2c1.6-0.3,3-1,4.2-2.2l12.9-12.9l0,0c0.8,0,1.7,0,2.6-0.1l0,0.1l0,0
				L16.1,36.5z"/>
			<path class="st0" d="M11,28.3c1.4,0,2.5,1.1,2.5,2.5c0,1.4-1.1,2.5-2.5,2.5c-0.3,0-0.5,0-0.8-0.1c1.1-1.2,1.1-3-0.1-4.2
				c-0.1-0.1-0.2-0.2-0.4-0.3C10.2,28.4,10.6,28.3,11,28.3z"/>
			<path class="st0" d="M12.7,33.2c-0.9,0.9-2.3,1.1-3.4,0.6c0.3-0.1,0.6-0.3,0.8-0.6c0,0,0,0,0.1-0.1c0.2,0.1,0.5,0.1,0.8,0.1
				c1.4,0,2.5-1.1,2.5-2.5c0-1.4-1.1-2.5-2.5-2.5c-0.4,0-0.8,0.1-1.2,0.3c-0.1-0.1-0.3-0.2-0.5-0.3c1.1-0.5,2.5-0.3,3.4,0.6
				C13.9,30.1,13.9,32,12.7,33.2z"/>
			<path class="st2" d="M9.7,32.9c-0.7-0.4-1.2-1.2-1.2-2.1s0.5-1.7,1.2-2.1c0.7,0.4,1.2,1.2,1.2,2.1S10.4,32.4,9.7,32.9z"/>
			<path class="st1" d="M10.2,28.9c1.2,1.2,1.2,3,0.1,4.2C10,33,9.9,33,9.7,32.9c0.7-0.4,1.2-1.2,1.2-2.1s-0.5-1.7-1.2-2.1
				c0,0,0.1,0,0.1-0.1C9.9,28.7,10.1,28.8,10.2,28.9z"/>
			<path class="st1" d="M8.6,33.2c0.4,0,0.8-0.2,1.1-0.4C9.9,33,10,33,10.2,33.1c0,0,0,0-0.1,0.1c-0.3,0.3-0.5,0.4-0.8,0.6
				C9.1,33.6,8.8,33.4,8.6,33.2z"/>
			<path class="st2" d="M8.5,30.8c0,0.9,0.5,1.7,1.2,2.1c-0.3,0.2-0.7,0.3-1.1,0.4c0,0-0.1,0-0.1-0.1c-1.2-1.2-1.2-3.1,0-4.3
				c0.2-0.2,0.4-0.4,0.7-0.5c0.2,0.1,0.4,0.2,0.5,0.3C9,29.1,8.5,29.9,8.5,30.8z"/>
			<path class="st2" d="M8.5,33.2C8.5,33.2,8.6,33.2,8.5,33.2C8.5,33.2,8.5,33.2,8.5,33.2c-1.4,0.1-2.5-1-2.5-2.4
				c0-1.4,1.1-2.5,2.5-2.5c0.3,0,0.5,0,0.8,0.1c-0.2,0.1-0.5,0.3-0.7,0.5C7.3,30.1,7.3,32,8.5,33.2z"/>
			<path class="st1" d="M5.9,33.2c-1.2-1.2-1.2-3.1,0-4.3c0.9-0.9,2.3-1.1,3.4-0.6c0,0-0.1,0.1-0.1,0.1c-0.2-0.1-0.5-0.1-0.8-0.1
				c-1.4,0-2.5,1.1-2.5,2.5c0,1.4,1.1,2.5,2.5,2.5c0.1,0,0.1,0,0.2,0c0.2,0.2,0.5,0.4,0.7,0.5C8.2,34.3,6.8,34.1,5.9,33.2z"/>
			<path class="st0" d="M5.1,36.5c-3-3-3-8,0-11L18,12.6l0,0c-0.2-3.2,0.9-6.5,3.4-8.9c1.8-1.7,3.9-2.8,6.2-3.2l-4.9,4.9l2.3,8.7
				l8.7,2.3l0.5-0.5l2,0.5l2.4-2.3c-0.4,2.3-1.5,4.4-3.2,6.2c-1.8,1.8-4,2.9-6.4,3.3c-0.9,0.1-1.7,0.2-2.6,0.1l0,0L13.6,36.5
				c-1.2,1.2-2.7,1.9-4.2,2.2C7.8,38.5,6.3,37.7,5.1,36.5z M5.9,28.9c-1.2,1.2-1.2,3.1,0,4.3c0.9,0.9,2.3,1.1,3.4,0.6
				c1.1,0.5,2.5,0.3,3.4-0.6c1.2-1.2,1.2-3.1,0-4.3c-0.9-0.9-2.3-1.1-3.4-0.6C8.2,27.8,6.8,28,5.9,28.9z"/>
			<path class="st3" d="M5.1,25.5c-3,3-3,8,0,11c1.2,1.2,2.7,1.9,4.2,2.2c-2.4,0.4-4.9-0.3-6.8-2.2c-3-3-3-8,0-11l12.9-12.9l0,0
				c-0.2-3.2,0.9-6.5,3.4-8.9c2.4-2.4,5.7-3.6,8.9-3.4l-0.2,0.2c-2.3,0.4-4.4,1.5-6.2,3.2C19,6.1,17.9,9.4,18,12.6l0,0L5.1,25.5z"/>
		</g>
		<g>
		</g>
	</g>
</g>
<g>
</g>
<g>
</g>
<g>
</g>
<g>
</g>
<g>
</g>
</svg>
