<?xml version="1.0" encoding="utf-8"?>
<!-- Generator: Adobe Illustrator 22.1.0, SVG Export Plug-In . SVG Version: 6.00 Build 0)  -->
<svg version="1.1" id="Layer_1" xmlns="http://www.w3.org/2000/svg" xmlns:xlink="http://www.w3.org/1999/xlink" x="0px" y="0px"
	 viewBox="0 0 44 42.9" style="enable-background:new 0 0 44 42.9;" xml:space="preserve">
<style type="text/css">
	.st0{fill:#676767;}
	.st1{fill:#4D4C4D;}
	.st2{fill:#7F7F7F;}
</style>
<g id="XMLID_11_">
	<g>
		<path class="st0" d="M37,6.9l4.5,7.9l-2.6,4.5c0.1,0.7,0.1,1.4,0.1,2.2c0,0.7-0.1,1.5-0.1,2.2l2.6,4.5L37,36h-3h-2.3
			c-1.1,0.9-2.4,1.6-3.7,2.2l-2.6,4.5h-6.8L16,38.2c-1.3-0.6-2.6-1.3-3.7-2.2H10h-3l-4.5-7.9l2.6-4.5C5,22.9,5,22.2,5,21.5
			C5,20.7,5,20,5.1,19.3l-2.6-4.5l4.5-7.9h3h2.3c1.2-0.9,2.4-1.6,3.7-2.2l2.6-4.5h6.8L28,4.7c1.3,0.6,2.6,1.3,3.7,2.2H34H37z
			 M23.1,30.5c5,0,9.1-4.1,9.1-9.1s-4.1-9.1-9.1-9.1c-0.4,0-0.8,0-1.1,0.1c-0.4,0-0.8-0.1-1.1-0.1c-5,0-9.1,4.1-9.1,9.1
			s4.1,9.1,9.1,9.1c0.4,0,0.8,0,1.1-0.1C22.4,30.5,22.8,30.5,23.1,30.5z"/>
		<path class="st1" d="M41.5,14.8L37,6.9h2.3l4.5,7.9l-2.6,4.5c0.1,0.7,0.1,1.4,0.1,2.2c0,0.7-0.1,1.5-0.1,2.2l2.6,4.5L39.2,36H37
			l4.5-7.9l-2.6-4.5c0.1-0.7,0.1-1.4,0.1-2.2c0-0.7-0.1-1.5-0.1-2.2L41.5,14.8z"/>
		<path class="st1" d="M28,4.7l-2.6-4.5h2.3l2.6,4.5c1.3,0.6,2.6,1.3,3.7,2.2h-2.3C30.6,6.1,29.4,5.3,28,4.7z"/>
		<path class="st1" d="M28,38.2c1.3-0.6,2.6-1.3,3.7-2.2H34c-1.2,0.9-2.4,1.6-3.7,2.2l-2.6,4.5h-2.3L28,38.2z"/>
		<path class="st0" d="M30,21.5c0-4.6-3.5-8.5-8-9c0.4,0,0.8-0.1,1.1-0.1c5,0,9.1,4.1,9.1,9.1s-4.1,9.1-9.1,9.1
			c-0.4,0-0.8,0-1.1-0.1C26.5,29.9,30,26.1,30,21.5z"/>
		<path class="st2" d="M13.7,4.7l2.6-4.5h2.3L16,4.7c-1.3,0.6-2.6,1.3-3.7,2.2H10C11.2,6.1,12.4,5.3,13.7,4.7z"/>
		<path class="st2" d="M16,38.2l2.6,4.5h-2.3l-2.6-4.5c-1.3-0.6-2.6-1.3-3.7-2.2h2.3C13.4,36.8,14.7,37.6,16,38.2z"/>
		<path class="st0" d="M20.9,30.5c-5,0-9.1-4.1-9.1-9.1s4.1-9.1,9.1-9.1c0.4,0,0.8,0,1.1,0.1c-4.5,0.6-7.9,4.4-7.9,9s3.5,8.5,7.9,9
			C21.6,30.5,21.3,30.5,20.9,30.5z"/>
		<path class="st2" d="M2.8,19.3l-2.6-4.5l4.5-7.9h2.3l-4.5,7.9l2.6,4.5C5,20,5,20.7,5,21.5c0,0.7,0.1,1.5,0.1,2.2l-2.6,4.5L7.1,36
			H4.8l-4.5-7.9l2.6-4.5c-0.1-0.7-0.1-1.4-0.1-2.2C2.7,20.7,2.8,20,2.8,19.3z"/>
	</g>
	<g>
	</g>
</g>
<g>
</g>
<g>
</g>
<g>
</g>
<g>
</g>
<g>
</g>
</svg>
