<?xml version="1.0" encoding="utf-8"?>
<!-- Generator: Adobe Illustrator 21.1.0, SVG Export Plug-In . SVG Version: 6.00 Build 0)  -->
<svg version="1.1" xmlns="http://www.w3.org/2000/svg" xmlns:xlink="http://www.w3.org/1999/xlink" x="0px" y="0px"
	 viewBox="0 0 180 252" style="enable-background:new 0 0 180 252;" xml:space="preserve">
<style type="text/css">
	.st24{fill:#333333;}
	.st25{fill:#CBCBCA;stroke:#982020;stroke-width:2.5;stroke-miterlimit:10;}
	.st26{clip-path:url(#SVGID_2_);}
	.st27{fill:#CBCBCA;}
</style>

<path class="st24" d="M18,0h144c0,9.9,8.1,18,18,18v216c-9.9,0-18,8.1-18,18H18c0-9.9-8.1-18-18-18V18C9.9,18,18,9.9,18,0z"/>
<path class="st25" d="M36,18h108c9.9,0,18,8.1,18,18v180c0,9.9-8.1,18-18,18H36c-9.9,0-18-8.1-18-18V36C18,26.1,26.1,18,36,18z"
	/>
<g>
	<defs>
		<path id="SVGID_1_" d="M171,252H9c-5,0-9-4-9-9V9c0-5,4-9,9-9h162c5,0,9,4,9,9v234C180,248,176,252,171,252z"/>
	</defs>
	<clipPath id="SVGID_2_">
		<use xlink:href="#SVGID_1_"  style="overflow:visible;"/>
	</clipPath>
	<g class="st26">
		<path class="st27" d="M0,18c9.9,0,18-8.1,18-18H0V18z"/>
		<path class="st27" d="M180,234c-9.9,0-18,8.1-18,18h18V234z"/>
		<path class="st27" d="M162,0c0,9.9,8.1,18,18,18V0H162z"/>
		<path class="st27" d="M18,252c0-9.9-8.1-18-18-18v18H18z"/>
	</g>
</g>

</svg>
